<svg xmlns="http://www.w3.org/2000/svg" viewBox="0 0 566 151" width="566px" height="151px">
	<path style="fill: #2D2D2D;" d="M24.5,133.1H11.6l-2.7,7.8h-6l12.6-33.4h5.2l12.6,33.4h-6.1L24.5,133.1z M13.2,128.5h9.7l-4.8-13.9L13.2,128.5 z"/>
	<path style="fill: #2D2D2D;" d="M61.2,107.5v22.3c0,3.5-1.1,6.4-3.4,8.4c-2.3,2.1-5.3,3.1-9.1,3.1c-3.8,0-6.9-1-9.1-3.1 c-2.2-2-3.4-4.9-3.4-8.5v-22.3H42v22.4c0,2.2,0.6,3.9,1.7,5.1c1.1,1.2,2.8,1.8,5,1.8c4.5,0,6.7-2.4,6.7-7.1v-22.2H61.2z"/>
	<path style="fill: #2D2D2D;" d="M91.5,112.2H81.1v28.7h-5.8v-28.7H65v-4.7h26.5V112.2z"/>
	<path style="fill: #2D2D2D;" d="M121.9,125.1c0,3.3-0.6,6.1-1.7,8.6c-1.1,2.5-2.8,4.4-4.9,5.7c-2.1,1.3-4.5,2-7.3,2c-2.7,0-5.1-0.7-7.2-2 c-2.1-1.3-3.8-3.2-4.9-5.7c-1.2-2.4-1.7-5.3-1.8-8.5v-1.9c0-3.3,0.6-6.1,1.7-8.6c1.2-2.5,2.8-4.4,4.9-5.7c2.1-1.3,4.5-2,7.2-2 c2.7,0,5.1,0.7,7.2,2c2.1,1.3,3.7,3.2,4.9,5.6c1.1,2.5,1.7,5.3,1.7,8.6V125.1z M116.1,123.3c0-3.7-0.7-6.5-2.1-8.5 c-1.4-2-3.4-3-6-3c-2.5,0-4.5,1-5.9,2.9s-2.1,4.7-2.2,8.3v1.9c0,3.7,0.7,6.5,2.1,8.5c1.4,2,3.4,3,6,3c2.6,0,4.5-1,5.9-2.9 c1.4-2,2.1-4.8,2.1-8.6V123.3z"/>
	<path style="fill: #2D2D2D;" d="M135.2,107.5l9.6,25.6l9.6-25.6h7.5v33.4h-5.8v-11l0.6-14.7l-9.9,25.7h-4.2l-9.8-25.7l0.6,14.7v11h-5.8v-33.4 H135.2z"/>
	<path style="fill: #2D2D2D;" d="M188,133.1H175l-2.7,7.8h-6l12.6-33.4h5.2l12.6,33.4h-6.1L188,133.1z M176.7,128.5h9.7l-4.8-13.9L176.7,128.5z"/>
	<path style="fill: #2D2D2D;" d="M225.6,130c-0.3,3.6-1.7,6.3-3.9,8.3c-2.3,2-5.3,3-9.2,3c-2.7,0-5-0.6-7-1.9c-2-1.3-3.6-3.1-4.7-5.4 c-1.1-2.3-1.7-5-1.7-8.1v-3.1c0-3.2,0.6-5.9,1.7-8.3c1.1-2.4,2.7-4.3,4.8-5.6c2.1-1.3,4.5-2,7.2-2c3.7,0,6.7,1,8.9,3 c2.2,2,3.6,4.8,3.9,8.5h-5.8c-0.3-2.4-1-4.1-2.1-5.2c-1.1-1.1-2.8-1.6-4.9-1.6c-2.5,0-4.5,0.9-5.8,2.8c-1.4,1.8-2,4.6-2.1,8.1v3 c0,3.6,0.6,6.4,1.9,8.3c1.3,1.9,3.2,2.8,5.7,2.8c2.3,0,4-0.5,5.1-1.5c1.1-1,1.9-2.7,2.2-5.1H225.6z M214.5,141l-0.3,1.2 c2.3,0.4,3.4,1.7,3.4,4c0,1.6-0.7,2.9-2,3.8c-1.3,0.9-3.2,1.4-5.5,1.4l-0.2-3.1c1,0,1.8-0.2,2.3-0.5s0.8-0.9,0.8-1.5 c0-0.7-0.3-1.2-0.8-1.4s-1.4-0.4-2.7-0.5l0.7-3.2H214.5z"/>
	<path style="fill: #2D2D2D;" d="M249.4,133.1h-12.9l-2.7,7.8h-6l12.6-33.4h5.2l12.6,33.4h-6.1L249.4,133.1z M251.5,99.1c0,1.7-0.5,3.1-1.5,4.2 c-1,1.1-2.2,1.7-3.7,1.7c-0.6,0-1.1-0.1-1.5-0.2c-0.4-0.1-1.1-0.4-1.9-0.9c-0.8-0.5-1.4-0.7-1.7-0.8c-0.3-0.1-0.7-0.1-1.1-0.1 c-0.6,0-1.1,0.2-1.5,0.7c-0.4,0.4-0.6,1-0.6,1.7l-3.4-0.2c0-1.7,0.5-3.1,1.5-4.2c1-1.1,2.2-1.7,3.6-1.7c0.9,0,1.9,0.3,3.2,1 c1.2,0.7,2.2,1,3,1c0.6,0,1.1-0.2,1.5-0.7c0.4-0.4,0.6-1,0.6-1.7L251.5,99.1z M238.1,128.5h9.7l-4.8-13.9L238.1,128.5z"/>
	<path style="fill: #2D2D2D;" d="M288.2,125.1c0,3.3-0.6,6.1-1.7,8.6c-1.1,2.5-2.8,4.4-4.9,5.7c-2.1,1.3-4.5,2-7.3,2c-2.7,0-5.1-0.7-7.2-2 c-2.1-1.3-3.8-3.2-4.9-5.7c-1.2-2.4-1.7-5.3-1.8-8.5v-1.9c0-3.3,0.6-6.1,1.7-8.6c1.2-2.5,2.8-4.4,4.9-5.7c2.1-1.3,4.5-2,7.2-2 c2.7,0,5.1,0.7,7.2,2c2.1,1.3,3.7,3.2,4.9,5.6c1.1,2.5,1.7,5.3,1.7,8.6V125.1z M282.4,123.3c0-3.7-0.7-6.5-2.1-8.5 c-1.4-2-3.4-3-6-3c-2.5,0-4.5,1-5.9,2.9s-2.1,4.7-2.2,8.3v1.9c0,3.7,0.7,6.5,2.1,8.5c1.4,2,3.4,3,6,3c2.6,0,4.5-1,5.9-2.9 c1.4-2,2.1-4.8,2.1-8.6V123.3z"/>
	<path style="fill: #2D2D2D;" d="M331.2,130c-0.3,3.6-1.7,6.3-3.9,8.3c-2.3,2-5.3,3-9.2,3c-2.7,0-5-0.6-7-1.9c-2-1.3-3.6-3.1-4.7-5.4 c-1.1-2.3-1.7-5-1.7-8.1v-3.1c0-3.2,0.6-5.9,1.7-8.3c1.1-2.4,2.7-4.3,4.8-5.6c2.1-1.3,4.5-2,7.2-2c3.7,0,6.7,1,8.9,3 c2.2,2,3.6,4.8,3.9,8.5h-5.8c-0.3-2.4-1-4.1-2.1-5.2c-1.1-1.1-2.8-1.6-4.9-1.6c-2.5,0-4.5,0.9-5.8,2.8c-1.4,1.8-2,4.6-2.1,8.1v3 c0,3.6,0.6,6.4,1.9,8.3c1.3,1.9,3.2,2.8,5.7,2.8c2.3,0,4-0.5,5.1-1.5c1.1-1,1.9-2.7,2.2-5.1H331.2z"/>
	<path style="fill: #2D2D2D;" d="M363,125.1c0,3.3-0.6,6.1-1.7,8.6c-1.1,2.5-2.8,4.4-4.9,5.7c-2.1,1.3-4.5,2-7.3,2c-2.7,0-5.1-0.7-7.2-2 c-2.1-1.3-3.8-3.2-4.9-5.7c-1.2-2.4-1.7-5.3-1.8-8.5v-1.9c0-3.3,0.6-6.1,1.7-8.6c1.2-2.5,2.8-4.4,4.9-5.7c2.1-1.3,4.5-2,7.2-2 c2.7,0,5.1,0.7,7.2,2c2.1,1.3,3.7,3.2,4.9,5.6c1.1,2.5,1.7,5.3,1.7,8.6V125.1z M357.2,123.3c0-3.7-0.7-6.5-2.1-8.5 c-1.4-2-3.4-3-6-3c-2.5,0-4.5,1-5.9,2.9s-2.1,4.7-2.2,8.3v1.9c0,3.7,0.7,6.5,2.1,8.5c1.4,2,3.4,3,6,3c2.6,0,4.5-1,5.9-2.9 c1.4-2,2.1-4.8,2.1-8.6V123.3z"/>
	<path style="fill: #2D2D2D;" d="M376.4,107.5l9.6,25.6l9.6-25.6h7.5v33.4h-5.8v-11l0.6-14.7l-9.9,25.7h-4.2l-9.8-25.7l0.6,14.7v11h-5.8v-33.4 H376.4z"/>
	<path style="fill: #2D2D2D;" d="M429.5,126h-13.7v10.3h16v4.6H410v-33.4h21.7v4.7h-15.9v9.2h13.7V126z"/>
	<path style="fill: #2D2D2D;" d="M448.8,128.1h-6.5v12.9h-5.8v-33.4h11.8c3.9,0,6.8,0.9,8.9,2.6c2.1,1.7,3.1,4.2,3.1,7.5c0,2.2-0.5,4.1-1.6,5.6 c-1.1,1.5-2.6,2.7-4.5,3.5l7.5,13.9v0.3h-6.2L448.8,128.1z M442.4,123.4h6c2,0,3.5-0.5,4.6-1.5c1.1-1,1.7-2.3,1.7-4.1 c0-1.8-0.5-3.2-1.5-4.2c-1-1-2.5-1.5-4.6-1.5h-6.1V123.4z"/>
	<path style="fill: #2D2D2D;" d="M491.4,130c-0.3,3.6-1.7,6.3-3.9,8.3c-2.3,2-5.3,3-9.2,3c-2.7,0-5-0.6-7-1.9c-2-1.3-3.6-3.1-4.7-5.4 c-1.1-2.3-1.7-5-1.7-8.1v-3.1c0-3.2,0.6-5.9,1.7-8.3c1.1-2.4,2.7-4.3,4.8-5.6c2.1-1.3,4.5-2,7.2-2c3.7,0,6.7,1,8.9,3 c2.2,2,3.6,4.8,3.9,8.5h-5.8c-0.3-2.4-1-4.1-2.1-5.2c-1.1-1.1-2.8-1.6-4.9-1.6c-2.5,0-4.5,0.9-5.8,2.8c-1.4,1.8-2,4.6-2.1,8.1v3 c0,3.6,0.6,6.4,1.9,8.3c1.3,1.9,3.2,2.8,5.7,2.8c2.3,0,4-0.5,5.1-1.5c1.1-1,1.9-2.7,2.2-5.1H491.4z"/>
	<path style="fill: #2D2D2D;" d="M502.7,140.9h-5.8v-33.4h5.8V140.9z"/>
	<path style="fill: #2D2D2D;" d="M528.9,133.1H516l-2.7,7.8h-6l12.6-33.4h5.2l12.6,33.4h-6.1L528.9,133.1z M517.6,128.5h9.7l-4.8-13.9 L517.6,128.5z"/>
	<path style="fill: #2D2D2D;" d="M547.3,136.3h15.2v4.6h-21v-33.4h5.8V136.3z"/>
	<path style="fill: #C62C2C;" d="M103.7,74.9H82c-1.6-9.1-3.2-16-4.7-20.8c-1.5-4.8-3.6-7.1-6.2-7.1h-48v27.9H1.9V30.1h65.5 c1.8,0,3.4-0.5,4.9-1.6c1.4-1.1,2.2-2.5,2.2-4.2c0-0.7-0.2-1.5-0.7-2.4c-0.5-0.9-1.2-1.7-2.2-2.3c-1-0.6-2.2-1-3.7-1H1.9V1.4h80.4 c4.9,0,8.4,1.4,10.5,4.1s3.2,5.9,3.2,9.5v14.9c0,3.1-0.5,5.3-1.6,6.8c-1.1,1.5-3.3,3.1-6.6,4.9c2.2,1.2,3.7,2.1,4.6,2.7 c0.9,0.6,2,2,3.4,4.1c1.3,2.1,2.6,5.3,3.9,9.4C101.1,62.1,102.4,67.7,103.7,74.9z M210.6,52.6c0,4.1-1.1,7.8-3.4,11.2 c-2.3,3.4-5,6.1-8.3,8.1c-3.3,2-6.1,3-8.6,3h-56.5c-4.6,0-8.8-1.2-12.4-3.6c-3.6-2.4-6.3-5.5-8.3-9.1c-1.9-3.6-2.9-7.1-2.9-10.4 V24.2c0-3,0.7-5.9,2-8.6c1.3-2.8,3.1-5.2,5.2-7.3c2.2-2.1,4.5-3.8,7-5c2.5-1.2,5-1.8,7.3-1.8h55.6c2.5,0,5.6,0.8,9.2,2.5 c3.7,1.6,6.9,4.3,9.7,8c2.8,3.7,4.3,8.4,4.3,14.3V52.6z M189.4,45.7V30.6c0-3.2-1.1-5.9-3.2-8.1c-2.2-2.2-5.6-3.3-10.2-3.3h-32.6 c-1.3,0-2.8,0.5-4.7,1.4c-1.9,1-3.5,2.2-4.9,3.8c-1.4,1.6-2.1,3.2-2.1,5v14.4c0.1,3.4,1,6.3,2.8,8.7c1.8,2.4,4.5,3.5,8,3.5h36.2 c2.9,0,5.4-0.8,7.5-2.4C188.4,52.1,189.4,49.4,189.4,45.7z M346.2,74.8H325V29.3c0-0.8-0.3-1.4-0.9-2c-0.6-0.6-1.2-0.8-1.8-0.8 c-1.5,0-2.6,0.7-3.2,2l-25.5,46.4h-20.1l-26.2-46.6c-0.1-0.6-0.4-1.1-0.9-1.5c-0.4-0.4-0.9-0.8-1.4-1c-0.5-0.2-0.9-0.3-1.2-0.3 c-0.6,0-1.2,0.3-1.7,1c-0.5,0.7-0.8,1.4-0.8,2.2v46.3h-20.8V18.2c0-2.7,0.7-5.3,2-7.6c1.3-2.3,3-4.2,5-5.8c2-1.6,4.2-2.8,6.4-3.7 c2.3-0.9,4.2-1.3,5.9-1.3c4.8,0,8.8,1.2,12,3.7c3.2,2.4,6.6,6.6,10.1,12.6L283,54l21.6-38c2.8-5.3,5.9-9.3,9.2-12 c3.3-2.8,7.4-4.1,12.3-4.1c2.9,0,5.6,0.6,8.1,1.7c2.5,1.1,4.7,2.6,6.5,4.6c1.8,1.9,3.2,4,4.1,6.3c0.9,2.3,1.4,4.5,1.4,6.7V74.8z M456.3,74.9h-22v-5.1c-0.6,1.3-1.7,2.4-3.5,3.5c-1.7,1.1-3.3,1.6-4.7,1.6h-59.7c-1.6,0-3.2-0.4-4.8-1.3c-1.6-0.8-2.9-2-4-3.5 c-1-1.5-1.6-3.2-1.6-5.1c0-3.6-0.1-8.2-0.1-13.7c-0.1-5.5-0.1-8.5-0.1-8.8c0-4.1,1.1-7.4,3.3-9.8c2.2-2.4,4.8-3.6,7.7-3.6h56.5 c2.6,0,4.9,0.7,6.8,2s3.3,2.7,4.2,4v-6.7c0-1.4-0.4-2.8-1.3-4.3c-0.8-1.4-2-2.6-3.6-3.6s-3.3-1.4-5.4-1.4h-67.6V1.4h76.2 c3.2,0,6.3,0.8,9.1,2.4c2.9,1.6,5.4,3.6,7.6,6.1c2.2,2.5,3.9,5.1,5.1,7.8c1.2,2.7,1.8,5.1,1.8,7.2V74.9z M430.1,52.1 c0-0.9-0.3-1.8-1-2.5c-0.7-0.8-1.5-1.4-2.5-1.8c-1-0.5-1.8-0.7-2.4-0.7h-41.7c-1.9,0-3.2,0.6-4,1.9c-0.8,1.3-1.1,2.3-1.1,3 c0,1.5,0.5,2.7,1.5,3.6c1,0.9,2,1.4,2.9,1.4h43.6c1,0,2-0.5,3.1-1.5C429.5,54.5,430.1,53.3,430.1,52.1z M487.3,74.8h-20.8V1.4h20.8 V74.8z M566.1,74.8h-30.9l-35-28.9V29.1l33.4-27.6h28.1l-42,35.8L566.1,74.8z M566,87H1v7h565V87z"/>
</svg>
